 <?xml version="1.0" encoding="UTF-8" standalone="no"?>
                <svg viewBox="-2 0 511 512" xmlns:dc="http://purl.org/dc/elements/1.1/"
                    xmlns:cc="http://creativecommons.org/ns#" xmlns:rdf="http://www.w3.org/1999/02/22-rdf-syntax-ns#"
                    xmlns:svg="http://www.w3.org/2000/svg" xmlns="http://www.w3.org/2000/svg"
                    xmlns:xlink="http://www.w3.org/1999/xlink"
                    xmlns:sodipodi="http://sodipodi.sourceforge.net/DTD/sodipodi-0.dtd"
                    xmlns:inkscape="http://www.inkscape.org/namespaces/inkscape" version="1.1" id="svg2"
                    sodipodi:docname="desarrolloweb2021t.svg" inkscape:version="1.0.1 (3bc2e813f5, 2020-09-07)">
                    > 
 
 
                        <path
                            d="m398.382812 504.5c-7.398437 0-13.417968-6.019531-13.417968-13.421875v-4.273437c0-2.089844-1.363282-3.933594-3.3125-4.488282-5.519532-1.566406-10.875-3.757812-15.917969-6.515625-.65625-.359375-1.398437-.546875-2.148437-.546875-1.234376 0-2.441407.503906-3.320313 1.382813l-2.980469 2.980469c-2.535156 2.53125-5.90625 3.929687-9.488281 3.929687-3.585937 0-6.953125-1.398437-9.488281-3.933594l-7.292969-7.289062c-2.53125-2.535157-3.929687-5.902344-3.929687-9.488281 0-3.585938 1.398437-6.953126 3.929687-9.488282l2.980469-2.980468c1.457031-1.457032 1.800781-3.707032.832031-5.472657-2.753906-5.042969-4.945313-10.398437-6.515625-15.914062-.550781-1.949219-2.398438-3.3125-4.484375-3.3125h-4.277344c-7.398437 0-13.417969-6.019531-13.417969-13.417969v-10.3125c0-7.398438 6.019532-13.417969 13.417969-13.417969h4.640625c2.066406 0 3.917969-1.34375 4.5-3.261719 1.621094-5.347656 3.832032-10.535156 6.578125-15.414062 1.007813-1.789062.679688-4.070312-.792969-5.542969l-3.460937-3.460937c-2.535156-2.53125-3.929687-5.902344-3.929687-9.488282 0-3.585937 1.398437-6.957031 3.929687-9.488281l7.292969-7.292969c2.535156-2.535156 5.902344-3.929687 9.488281-3.929687s6.953125 1.394531 9.488281 3.929687l3.851563 3.855469c.878906.875 2.085937 1.375 3.316406 1.375.75 0 1.464844-.175781 2.125-.527343 4.785156-2.539063 9.847656-4.578126 15.054687-6.058594 1.960938-.558594 3.332032-2.398438 3.332032-4.476563v-5.632812c0-7.402344 6.019531-13.421875 13.417968-13.421875h10.3125c7.398438 0 13.417969 6.019531 13.417969 13.421875v6.023437c0 2.039063 1.335938 3.871094 3.25 4.449219 5.050781 1.53125 9.960938 3.589844 14.601563 6.121094.671875.371093 1.433594.5625 2.199218.5625 1.246094 0 2.421876-.488281 3.308594-1.371094l4.320313-4.320313c2.535156-2.535156 5.902343-3.929687 9.488281-3.929687s6.957031 1.394531 9.488281 3.929687l7.292969 7.289063c5.230469 5.234375 5.230469 13.746094 0 18.980469l-4.320312 4.320312c-1.457032 1.453125-1.789063 3.71875-.8125 5.507813 2.535156 4.640625 4.59375 9.550781 6.121093 14.597656.582031 1.914063 2.410157 3.253906 4.453125 3.253906h6.023438c7.398437 0 13.417968 6.019531 13.417968 13.417969v10.308594c0 7.402344-6.019531 13.421875-13.417968 13.421875h-5.632813c-2.078125 0-3.917969 1.367187-4.476562 3.328125-1.480469 5.207031-3.519531 10.269531-6.058594 15.058594-.9375 1.765624-.585937 4 .851563 5.4375l3.851562 3.855468c2.535156 2.535156 3.929688 5.902344 3.929688 9.488282 0 3.585937-1.394532 6.953124-3.929688 9.488281l-7.292969 7.289062c-2.53125 2.535157-5.902343 3.933594-9.488281 3.933594s-6.953125-1.398437-9.488281-3.933594l-3.457031-3.457031c-.890626-.886719-2.066407-1.375-3.316407-1.375-.78125 0-1.550781.199219-2.230469.582031-4.878906 2.742188-10.066406 4.957031-15.410156 6.578125-1.921875.582032-3.265625 2.433594-3.265625 4.5v4.636719c0 7.402344-6.019531 13.421875-13.417969 13.421875zm5.15625-128.949219c-17.394531 0-31.542968 14.148438-31.542968 31.542969 0 17.390625 14.148437 31.542969 31.542968 31.542969 17.390626 0 31.539063-14.152344 31.539063-31.542969s-14.148437-31.542969-31.539063-31.542969zm0 0"
                            fill="#fd715c" />
                        <path
                            d="m403.539062 368.054688c-21.527343 0-39.042968 17.511718-39.042968 39.039062 0 .558594.011718 1.113281.035156 1.664062-.019531.242188-.035156.484376-.035156.734376 0 .636718.082031 1.257812.230468 1.847656 2.125 19.539062 18.71875 34.796875 38.8125 34.796875 21.527344 0 39.039063-17.515625 39.039063-39.042969s-17.511719-39.039062-39.039063-39.039062zm0 15c11.503907 0 21.148438 8.125 23.496094 18.9375h-46.992187c2.347656-10.816407 11.988281-18.9375 23.496093-18.9375zm0 48.082031c-9.730468 0-18.128906-5.8125-21.910156-14.148438h43.816406c-3.777343 8.335938-12.175781 14.148438-21.90625 14.148438zm0 0" />
</svg>